<svg xmlns="http://www.w3.org/2000/svg" viewBox="1350 198 866 1343">
	<path d="M1781 1091 1426 1094C1382 1093 1354 1120 1354 1165L1352 1500C1352 1522 1354 1532 1377 1539 1391 1542 1407 1529 1408 1511 1408 1492 1392 1479 1392 1458L1392 1188C1391 1139 1419 1131 1456 1132L1774 1132 2117 1131C2180 1132 2212 1093 2213 1034L2214 592C2214 553 2188 523 2152 522L1746 522C1683 520 1670 489 1670 450L1668 266C1667 196 1594.6666 203.3334 1542 200 1486 202 1445 201 1411 242 1392 275 1387 322 1406 348 1427 373 1457 376 1497 367 1531 354 1521 289 1546 276 1561 264 1611 252 1614 295L1614 476C1610 523 1645 565 1710 567L2094 573C2141 573 2158 596 2158 636L2162 1013C2161 1059 2143 1090 2103 1091Z" stroke="#000000" stroke-width="2" fill="none"/>
</svg>